<svg id="Layer_1" data-name="Layer 1" xmlns="http://www.w3.org/2000/svg" viewBox="0 0 215.53 136.46"><defs><style>.cls-1{fill:#005587;}</style></defs><path d="M9.64,75.3v6.54c0,1.73,1.16,1.52,1.51,1.52h193.2v6.53h1.52V83.38s.26-1.54-1.54-1.54H11.16V75.3Z"/><path d="M82.1,99.08l-6.34,16.73c0-5.4-5.34-6.5-7.08-6.93-6-1.54-7.1-1.76-7.1-3.6,0-2,1.94-2.7,3.6-2.7,2.51,0,4.54.73,4.71,3.6H75c0-5.51-4.57-7.67-9.53-7.67-4.25,0-8.78,2.28-8.89,7-.36-5-4.75-7-9.52-7-4.29,0-8.89,2.34-8.89,7.2,0,4.48,3.57,5.84,7.1,6.77s7.07,1.37,7.07,3.93-2.79,3-4.63,3c-2.8,0-5.26-1.23-5.27-4.4h-5l-6-15.9H26.07l-9,23.8h5.3l1.86-5.29h8.91l1.8,5.3h5.43l-.84-2.22a11.26,11.26,0,0,0,8,2.79c4.77,0,7.88-1.78,9.19-4.47,1.67,3.06,5.35,4.46,9.21,4.46s6.46-1.1,8.09-2.87l-.87,2.31h5.3l1.87-5.32h8.9L91,122.9h5.44L87.48,99.08ZM25.57,113.69l3.1-8.73h.07l3,8.73Zm40.48,5.69c-2.8,0-5.26-1.23-5.27-4.39H57.31c-.52-4.68-5.38-5.69-7-6.1-6-1.53-7.1-1.77-7.1-3.6,0-2,1.93-2.7,3.6-2.7,2.5,0,4.53.73,4.7,3.59h5c.25,4.1,3.67,5.41,7.08,6.3s7.07,1.36,7.07,3.93S67.89,119.38,66.05,119.38Zm15.56-5.71,3.1-8.73h.06l3,8.73Zm57-3.72a5.23,5.23,0,0,0,3.24-5c0-4.43-3.07-5.9-7.61-5.89H123v22l-8.25-22h-5.38l-9,23.81h5.31l1.86-5.3h8.91l1.8,5.29h16.32c4.3,0,8.39-2.09,8.4-6.92A5.82,5.82,0,0,0,138.6,110Zm-29.68,3.75L112,105h.07l3,8.74Zm19.35-10.56h4.9c1.86,0,3.6.47,3.6,2.74,0,2-1.37,2.84-3.19,2.84h-5.31Zm5.61,15.68h-5.61v-6.54H134c2.24,0,3.77,1,3.77,3.4S135.93,118.82,133.88,118.82ZM167.5,98.51c-7.37,0-11.71,5.49-11.7,12.57a13.49,13.49,0,0,0,2,7.37H149V99.09h-5.23V122.9h15.18v-3a11.27,11.27,0,0,0,8.58,3.56c7.37,0,11.7-5.5,11.69-12.37C179.2,104,174.86,98.5,167.5,98.51Zm0,20.53c-4.7,0-6.47-4-6.47-8,0-4.17,1.75-8.17,6.46-8.17s6.47,4,6.48,8.15C174,115,172.21,119,167.51,119Zm25-20L187,108.47l-5.58-9.38h-5.9l8.77,14.51v9.29h5.23v-9.16l8.84-14.64Z"/><path class="cls-1" d="M52.85,13.37A21.24,21.24,0,0,0,31.62,34.61H74.09A21.24,21.24,0,0,0,52.85,13.37Zm6.84,18.1H55.13V26.91a4.56,4.56,0,1,1-4.56-4.56,4.56,4.56,0,0,1,4.56,4.56V22.35h4.56Z"/><path class="cls-1" d="M50.41,26.91a2.28,2.28,0,1,0,2.28-2.28A2.28,2.28,0,0,0,50.41,26.91Z"/><path class="cls-1" d="M80.81,29.6a2.71,2.71,0,1,1,2.72,2.68A2.68,2.68,0,0,1,80.81,29.6Zm2.72,2.24a2.23,2.23,0,1,0-2.18-2.24A2.17,2.17,0,0,0,83.53,31.84ZM83,31.15H82.5V28.07h1.17c.73,0,1.09.27,1.09.87a.8.8,0,0,1-.8.85l.88,1.36h-.52l-.82-1.33H83Zm.56-1.73c.4,0,.75,0,.75-.5s-.34-.46-.67-.46H83v1Z"/><path class="cls-1" d="M74.09,34.61a21.24,21.24,0,0,1-42.47,0H17L52.85,67.75,88.71,34.61Z"/><path class="cls-1" d="M103.56,31.18,102,37H96.63l7-22.77h6.73L117.41,37h-5.54l-1.75-5.84Zm5.78-3.85-1.42-4.84c-.37-1.35-.78-3.07-1.12-4.39h-.1c-.3,1.35-.67,3.08-1,4.39l-1.39,4.84Z"/><path class="cls-1" d="M135.83,13V32.09c0,1.86.07,3.82.13,4.93H131.4l-.2-2.4h-.1a5.76,5.76,0,0,1-5.17,2.78c-3.92,0-7.06-3.35-7.06-8.49,0-5.54,3.44-8.78,7.4-8.78A5.08,5.08,0,0,1,130.63,22h.06V13Zm-5.14,14.53a5.11,5.11,0,0,0-.06-1,3.07,3.07,0,0,0-3-2.5c-2.37,0-3.55,2.1-3.55,4.7,0,2.77,1.39,4.53,3.52,4.53a3,3,0,0,0,3-2.47,5.86,5.86,0,0,0,.1-1.15Z"/><path class="cls-1" d="M153.7,33a21.59,21.59,0,0,0,.27,4h-4.63l-.3-1.65h-.1a5.94,5.94,0,0,1-4.73,2,5.07,5.07,0,0,1-5.34-5.07c0-4.29,3.85-6.32,9.7-6.32v-.2c0-.88-.48-2.13-3-2.13A9.68,9.68,0,0,0,141,24.89l-.95-3.27a13.49,13.49,0,0,1,6.42-1.49c5.51,0,7.23,3.24,7.23,7.13Zm-5-3.82c-2.7,0-4.8.64-4.8,2.6a1.84,1.84,0,0,0,2,2,2.84,2.84,0,0,0,2.68-1.89,4.16,4.16,0,0,0,.1-.88Z"/><path class="cls-1" d="M157.79,25.77c0-2.06-.06-3.78-.13-5.27H162l.2,2.27h.1a5.71,5.71,0,0,1,5-2.64A4.69,4.69,0,0,1,171.85,23h.07a7.12,7.12,0,0,1,2.16-2,6.26,6.26,0,0,1,3.14-.81c3.18,0,5.58,2.23,5.58,7.16V37h-5v-9c0-2.4-.78-3.78-2.44-3.78a2.57,2.57,0,0,0-2.4,1.79,5.41,5.41,0,0,0-.16,1.28V37h-5V27.77c0-2.06-.74-3.48-2.39-3.48a2.62,2.62,0,0,0-2.4,1.82,3.48,3.48,0,0,0-.21,1.32V37h-5Z"/><path class="cls-1" d="M186.82,32.53a10,10,0,0,0,4.42,1.22c1.56,0,2.2-.51,2.2-1.35s-.51-1.29-2.4-1.9c-3.45-1.15-4.76-3-4.73-4.93,0-3.11,2.64-5.44,6.73-5.44a10.86,10.86,0,0,1,4.63,1l-.88,3.51a8.85,8.85,0,0,0-3.58-.91c-1.26,0-2,.51-2,1.32s.65,1.22,2.67,1.89c3.15,1.08,4.43,2.67,4.46,5.07,0,3.11-2.39,5.37-7.13,5.37a11.56,11.56,0,0,1-5.33-1.18Z"/><path class="cls-1" d="M96.69,43.38a41,41,0,0,1,6.87-.5c3.38,0,5.74.5,7.36,1.82a5.69,5.69,0,0,1,2.13,4.76A6,6,0,0,1,109,55v.1c1.59.64,2.47,2.13,3,4.23.71,2.6,1.39,5.57,1.83,6.45h-5.27a30,30,0,0,1-1.56-5.31c-.64-2.87-1.62-3.61-3.75-3.65H101.8v9H96.69Zm5.11,9.77h2c2.57,0,4.09-1.29,4.09-3.28s-1.42-3.14-3.79-3.14a9.69,9.69,0,0,0-2.33.17Z"/><path class="cls-1" d="M119.44,47.27a2.58,2.58,0,1,1,2.77-2.57,2.53,2.53,0,0,1-2.77,2.57ZM116.9,65.82V49.3H122V65.82Z"/><path class="cls-1" d="M131.9,44.8v4.5h3.69v3.78H131.9v6c0,2,.51,2.91,2,2.91a6.33,6.33,0,0,0,1.52-.14l0,3.89a11,11,0,0,1-3.31.44,5.52,5.52,0,0,1-3.89-1.42c-.95-1-1.42-2.57-1.42-4.9V53.08h-2.2V49.3h2.2V46.19Z"/><path class="cls-1" d="M142.35,59.2c.17,2.12,2.26,3.14,4.66,3.14a13.64,13.64,0,0,0,4.56-.71l.68,3.48a15.61,15.61,0,0,1-6,1c-5.61,0-8.82-3.25-8.82-8.42,0-4.19,2.63-8.82,8.34-8.82,5.34,0,7.37,4.16,7.37,8.25a12,12,0,0,1-.17,2Zm6.05-3.52c0-1.25-.54-3.34-2.88-3.34-2.19,0-3.07,2-3.21,3.34Z"/><path class="cls-1" d="M52.3,44.37s1.31-3.43,3.46-2.4a1.8,1.8,0,0,0,1.11.38,1.82,1.82,0,1,0,0-3.64l-.19,0h-.06a1.87,1.87,0,0,0-.34.08c-4,.95-4.34,5.56-4.34,5.56v3.28h-.37V38.9H47V48H52.3Z"/></svg>