<?xml version="1.0" encoding="UTF-8"?><svg id="Layer_1" xmlns="http://www.w3.org/2000/svg" viewBox="0 0 200.96 124.82"><defs><style>.cls-1{fill:#53b173;}</style></defs><g><g><path d="M0,75.51v6.69c0,1.77,1.19,1.56,1.55,1.56,17.6,0,196.38,0,197.84,0v6.69h1.56v-6.67s.27-1.58-1.58-1.58H1.55v-6.69H0Z"/><path d="M187.27,99.86l-5.66,9.6-5.71-9.6h-6.05l8.98,14.85v9.52h5.36v-9.39l9.05-14.99h-5.98Zm-25.62,20.44c-4.82,0-6.63-4.1-6.63-8.16,0-4.27,1.8-8.36,6.62-8.37,4.82,0,6.62,4.09,6.63,8.35,0,4.07-1.81,8.17-6.62,8.17m-.01-21.03c-7.54,0-11.99,5.62-11.98,12.87,0,2.85,.74,5.45,2.1,7.56h-9.09v-19.83s-5.36,0-5.36,0v24.38h15.55v-3.09c2.05,2.26,5.03,3.65,8.78,3.64,7.54,0,11.97-5.64,11.97-12.67,0-7.24-4.44-12.87-11.98-12.86m-34.42,20.8h-5.74v-6.69s5.84,0,5.84,0c2.29,0,3.86,.99,3.86,3.48,0,2.53-1.85,3.21-3.95,3.21m-5.75-16.05h5.02c1.91,0,3.69,.48,3.69,2.8,0,2.05-1.41,2.91-3.27,2.91h-5.44s0-5.71,0-5.71Zm-19.82,10.81l3.18-8.95h.07l3.08,8.95h-6.32Zm30.4-3.84c2.12-1.03,3.31-2.7,3.32-5.09,0-4.54-3.15-6.04-7.8-6.02h-11.47s.01,22.57,.01,22.57l-8.45-22.57h-5.51l-9.25,24.38h5.44l1.91-5.43h9.12l1.84,5.42h16.71c4.4,0,8.6-2.13,8.6-7.08,0-3.04-1.51-5.32-4.48-6.17m-58.36,3.81l3.18-8.94h.07l3.08,8.94h-6.33Zm-15.93,5.85c-2.86,0-5.39-1.26-5.4-4.49h-3.55c-.53-4.8-5.5-5.83-7.19-6.25-6.1-1.57-7.27-1.81-7.27-3.68,0-2.05,1.98-2.77,3.69-2.77,2.56,0,4.64,.74,4.82,3.68h5.17c.25,4.19,3.76,5.54,7.25,6.45,3.59,.95,7.25,1.39,7.25,4.03,0,2.49-2.86,3.04-4.75,3.04m-41.45-5.83l3.18-8.94h.07l3.07,8.94h-6.32Zm57.89-14.96l-6.5,17.13c0-5.53-5.46-6.66-7.24-7.1-6.11-1.58-7.27-1.8-7.27-3.69,0-2.05,1.98-2.76,3.69-2.76,2.57,0,4.64,.75,4.82,3.68h5.19c0-5.64-4.68-7.85-9.77-7.85-4.35,0-8.99,2.33-9.11,7.18-.36-5.13-4.85-7.18-9.74-7.17-4.39,0-9.1,2.39-9.1,7.37,0,4.58,3.65,5.97,7.27,6.93,3.59,.96,7.24,1.4,7.24,4.02,0,2.49-2.86,3.04-4.74,3.04-2.87,0-5.39-1.27-5.4-4.51h-5.12l-6.1-16.29h-5.49l-9.24,24.38h5.42l1.91-5.43h9.12s1.84,5.43,1.84,5.43h5.56l-.86-2.28c1.97,1.95,4.99,2.86,8.14,2.86,4.88,0,8.07-1.82,9.41-4.57,1.71,3.13,5.47,4.57,9.43,4.56,3.83,0,6.61-1.12,8.28-2.93l-.89,2.36h5.43l1.91-5.45h9.12l1.85,5.45h5.57s-9.13-24.39-9.13-24.39h-5.5Z"/></g><g><path class="cls-1" d="M59.41,38.97c0-4.42,2.64-7.07,6.42-7.07s6.1,2.54,6.1,6.96v16.18h6.53v-18.13c0-6.63-3.72-10.95-10.14-10.95-4.42,0-7.07,2.32-8.9,5.02V15.66h-6.53V55.04h6.53v-16.07Z"/><path class="cls-1" d="M136.5,50.4c-2.91,0-6.26-1.19-9.33-3.51l-2.91,4.42c3.56,2.8,8.04,4.26,12.08,4.26,5.93,0,10.57-2.97,10.57-8.95v-.11c0-5.12-4.69-7.01-8.85-8.31-3.34-1.08-6.42-1.94-6.42-3.99v-.11c0-1.67,1.46-2.86,3.99-2.86,2.37,0,5.29,1.03,8.04,2.7l2.59-4.64c-3.02-1.99-6.91-3.24-10.46-3.24-5.66,0-10.14,3.29-10.14,8.68v.11c0,5.45,4.69,7.18,8.9,8.36,3.34,1.02,6.36,1.78,6.36,3.99v.11c0,1.89-1.62,3.07-4.42,3.07Z"/><path class="cls-1" d="M117.62,55.04c1.32,0,2.4-1.07,2.4-2.4s-1.05-2.4-2.4-2.4-2.4,1.08-2.4,2.4,1.08,2.4,2.4,2.4Z"/><path class="cls-1" d="M150.17,55.04c1.32,0,2.4-1.07,2.4-2.4s-1.05-2.4-2.4-2.4-2.4,1.08-2.4,2.4,1.08,2.4,2.4,2.4Z"/><path class="cls-1" d="M83.35,55.04c1.32,0,2.4-1.07,2.4-2.4s-1.05-2.4-2.4-2.4-2.4,1.08-2.4,2.4,1.08,2.4,2.4,2.4Z"/><path class="cls-1" d="M101.9,55.92c4.85,0,8.83-1.83,11.83-5.43l.15-.18-4.17-3.7-.16,.15c-2.37,2.32-4.57,3.86-7.55,3.86-4.26,0-9.1-4.05-9.22-9.47-.06-3.07,.99-5.94,2.9-7.89,1.52-1.55,3.46-2.4,5.46-2.4,5.29,0,7.73,4.15,8.24,7.81h-8.85c-2.37,.27-4.16,2.17-4.16,4.43v.24h18.56l.03-.34c.05-.6,.1-1.16,.1-1.73,0-7.71-4.26-15.5-13.79-15.56-.03,0-.05,0-.08,0-3.72,0-7.24,1.46-9.91,4.11-2.75,2.73-4.26,6.38-4.26,10.26v.81c0,8.7,6.25,15.02,14.85,15.02Z"/><path class="cls-1" d="M31.38,0V71.35H168.35V0H31.38ZM162.3,65.3H37.43V6.05h124.87v59.25Z"/></g></g><path class="cls-1" d="M173.21,70.7c-1.62,0-2.76-1.18-2.76-2.79s1.16-2.8,2.79-2.8,2.71,1.16,2.71,2.77-1.13,2.83-2.74,2.83Zm.03-5.2c-1.39,0-2.3,1.02-2.3,2.41s.9,2.4,2.27,2.4,2.25-1.04,2.25-2.44-.84-2.37-2.22-2.37Zm.6,4.12l-.85-1.43h-.2v1.43h-.74v-3.52s.29-.03,.83-.03c.32,0,.69,.02,.94,.1,.22,.07,.69,.27,.69,.9,0,.9-.78,1.02-.78,1.02l1.02,1.54h-.9Zm-.83-3.13c-.17,0-.22,0-.22,0v1.31s.04,.01,.21,.01c.15,0,.22,0,.3-.03,.18-.04,.43-.2,.43-.66,0-.53-.35-.64-.71-.64Z"/></svg>