<?xml version="1.0" encoding="UTF-8"?> <svg xmlns="http://www.w3.org/2000/svg" width="500" height="133" viewBox="0 0 500 133" fill="none"><g clip-path="url(#clip0_3321_133)"><mask id="mask0_3321_133" style="mask-type:luminance" maskUnits="userSpaceOnUse" x="196" y="31" width="304" height="81"><path d="M500 31.124H196V111.576H500V31.124Z" fill="white"></path></mask><g mask="url(#mask0_3321_133)"><path fill-rule="evenodd" clip-rule="evenodd" d="M416.516 31.124H410.638L390.475 80.3389H395.521L413.577 36.2544L431.633 80.3389H436.679L416.516 31.124Z" fill="#77787B"></path><path fill-rule="evenodd" clip-rule="evenodd" d="M340.998 80.3389H377.974V75.9229H345.472V57.9341H377.974V53.5181H345.472V35.5401H377.974V31.124H340.998V80.3389Z" fill="#77787B"></path><path d="M252.317 31.124H247.908V80.339H252.317V31.124Z" fill="#77787B"></path><path d="M200 31.124V80.3389H236.944V75.9229H204.387V31.124H200Z" fill="#77787B"></path><path fill-rule="evenodd" clip-rule="evenodd" d="M277.602 80.3389H282.01V36.8714L312.179 80.3389H317.992V31.124H313.573V74.5916L283.404 31.124H277.602V80.3389Z" fill="#77787B"></path><path fill-rule="evenodd" clip-rule="evenodd" d="M453.203 35.5401H477.925C489.433 35.5401 489.433 57.9882 477.925 57.9882H469.767V62.4042L484.43 80.3281H490.417L475.808 62.4042H477.579C495.527 62.4151 495.527 31.124 477.569 31.124H448.783V80.3389H453.192V35.5401H453.203Z" fill="#77787B"></path><path d="M491.527 75.999H495.018V76.6485H493.646V80.3177H492.889V76.6485H491.527V75.999Z" fill="#77787B"></path><path d="M495.515 75.999H496.586L497.774 79.3868H497.785L498.941 75.999H499.989V80.3285H499.265V76.9948H499.255L498.055 80.3285H497.428L496.229 76.9948H496.218V80.3285H495.494V75.999H495.515Z" fill="#77787B"></path><path d="M371.335 100.123C371.411 98.748 371.875 97.7522 372.75 97.1353C373.615 96.5184 374.728 96.2041 376.068 96.2041C376.586 96.2041 377.094 96.2583 377.613 96.3557C378.121 96.4532 378.585 96.6371 378.996 96.9081C379.407 97.1785 379.731 97.5574 379.99 98.0549C380.249 98.5421 380.379 99.181 380.379 99.9709V106.184C380.379 106.757 380.66 107.05 381.211 107.05C381.363 107.05 381.513 107.017 381.665 106.963V108.165C381.503 108.197 381.352 108.218 381.222 108.229C381.092 108.24 380.93 108.251 380.736 108.251C380.379 108.251 380.087 108.197 379.86 108.1C379.644 108.002 379.471 107.861 379.353 107.677C379.233 107.494 379.147 107.277 379.115 107.028C379.083 106.779 379.061 106.498 379.061 106.205H379.018C378.759 106.584 378.499 106.92 378.239 107.212C377.98 107.504 377.677 107.753 377.353 107.959C377.029 108.165 376.651 108.316 376.23 108.424C375.808 108.533 375.311 108.587 374.76 108.587C374.209 108.587 373.701 108.522 373.237 108.381C372.761 108.24 372.351 108.034 371.994 107.753C371.638 107.472 371.357 107.115 371.162 106.693C370.957 106.26 370.859 105.751 370.859 105.166C370.859 104.355 371.043 103.716 371.4 103.25C371.756 102.796 372.243 102.439 372.837 102.201C373.431 101.962 374.101 101.789 374.847 101.692C375.592 101.595 376.348 101.497 377.116 101.411C377.408 101.378 377.667 101.335 377.894 101.28C378.132 101.227 378.315 101.151 378.467 101.043C378.618 100.934 378.737 100.783 378.812 100.588C378.899 100.393 378.942 100.134 378.942 99.8193C378.942 99.3326 378.866 98.9429 378.704 98.6286C378.542 98.315 378.326 98.0768 378.045 97.8929C377.764 97.709 377.44 97.5896 377.073 97.5141C376.705 97.4489 376.305 97.4167 375.884 97.4167C374.998 97.4167 374.253 97.6329 373.68 98.0659C373.096 98.4989 372.793 99.1914 372.761 100.144H371.335V100.123ZM378.942 101.844H378.899C378.812 102.006 378.639 102.135 378.38 102.211C378.121 102.287 377.894 102.341 377.699 102.373C377.094 102.482 376.468 102.579 375.83 102.655C375.193 102.742 374.598 102.861 374.079 103.034C373.55 103.196 373.117 103.434 372.783 103.749C372.448 104.062 372.275 104.495 372.275 105.079C372.275 105.437 372.351 105.761 372.491 106.043C372.632 106.324 372.826 106.562 373.064 106.768C373.302 106.974 373.583 107.125 373.896 107.233C374.209 107.342 374.534 107.396 374.869 107.396C375.408 107.396 375.927 107.31 376.435 107.147C376.932 106.984 377.364 106.736 377.732 106.422C378.099 106.108 378.402 105.718 378.618 105.264C378.834 104.809 378.942 104.3 378.942 103.727V101.865V101.844Z" fill="#77787B"></path><path d="M387.338 92.0596H390.871L397.614 102.915H397.657V92.0596H400.985V108.241H397.43L390.709 97.4062H390.665V108.241H387.338V92.0596Z" fill="#00529B"></path><path d="M402.963 96.5188H406.172V108.23H402.963V96.5188ZM406.172 94.7113H402.963V92.0596H406.172V94.7113Z" fill="#00529B"></path><path d="M415.735 100.642C415.53 99.3327 414.697 98.6286 413.358 98.6286C411.305 98.6286 410.624 100.718 410.624 102.439C410.624 104.16 411.283 106.129 413.293 106.129C414.784 106.129 415.648 105.177 415.854 103.749H418.955C418.544 106.855 416.394 108.554 413.325 108.554C409.792 108.554 407.426 106.065 407.426 102.547C407.426 99.0294 409.598 96.2041 413.401 96.2041C416.157 96.2041 418.696 97.6548 418.901 100.642H415.757H415.735Z" fill="#00529B"></path><path d="M423.159 101.119C423.202 100.21 423.796 98.6292 425.827 98.6292C427.384 98.6292 428.086 99.4952 428.388 101.119H423.159ZM431.598 103.154C431.825 99.5494 429.901 96.1943 425.925 96.1943C422.37 96.1943 419.949 98.8673 419.949 102.385C419.949 105.903 422.229 108.544 425.925 108.544C428.572 108.544 430.496 107.364 431.403 104.604H428.572C428.367 105.329 427.33 106.12 426.044 106.12C424.261 106.12 423.256 105.188 423.169 103.154H431.608H431.598Z" fill="#00529B"></path><path d="M437.216 92.0371H438.631V98.7047H438.675C439.28 97.0378 440.966 96.1608 442.694 96.1608C446.217 96.1608 447.903 99.0183 447.903 102.309C447.903 105.599 446.217 108.456 442.694 108.456C440.825 108.456 439.215 107.493 438.556 105.913H438.513V108.121H437.205V92.0481L437.216 92.0371ZM442.694 97.3514C439.68 97.3514 438.631 99.8953 438.631 102.309C438.631 104.722 439.691 107.266 442.694 107.266C445.395 107.266 446.487 104.722 446.487 102.309C446.487 99.8953 445.385 97.3514 442.694 97.3514Z" fill="#77787B"></path><path d="M450.119 96.4965H451.426V99.2243H451.469C452.194 97.3515 453.76 96.2474 455.856 96.3448V97.7632C453.296 97.6329 451.545 99.5166 451.545 101.93V108.121H450.129V96.5074L450.119 96.4965Z" fill="#77787B"></path><path d="M457.055 100.046C457.184 97.3191 459.097 96.1504 461.755 96.1504C463.797 96.1504 466.023 96.7777 466.023 99.8843V106.054C466.023 106.595 466.293 106.909 466.855 106.909C467.017 106.909 467.19 106.866 467.309 106.822V108.013C466.996 108.077 466.769 108.099 466.391 108.099C464.953 108.099 464.727 107.288 464.727 106.076H464.683C463.689 107.58 462.684 108.435 460.458 108.435C458.232 108.435 456.568 107.374 456.568 105.036C456.568 101.767 459.734 101.66 462.792 101.302C463.959 101.172 464.607 101.01 464.607 99.7217C464.607 97.8063 463.235 97.3404 461.571 97.3404C459.821 97.3404 458.513 98.1522 458.47 100.046H457.055ZM464.607 101.756H464.564C464.381 102.092 463.754 102.211 463.376 102.277C460.966 102.709 457.984 102.677 457.984 104.95C457.984 106.367 459.237 107.244 460.567 107.244C462.727 107.244 464.629 105.87 464.607 103.597V101.746V101.756Z" fill="#77787B"></path><path d="M468.834 96.4967H470.249V98.4992H470.293C470.811 97.1027 472.356 96.1611 473.999 96.1611C477.262 96.1611 478.245 97.8713 478.245 100.642V108.111H476.83V100.859C476.83 98.8567 476.182 97.3518 473.891 97.3518C471.6 97.3518 470.293 99.0619 470.249 101.335V108.111H468.834V96.4967Z" fill="#77787B"></path><path d="M491.124 108.111H489.816V105.902H489.773C489.168 107.407 487.32 108.446 485.634 108.446C482.112 108.446 480.426 105.589 480.426 102.298C480.426 99.0076 482.112 96.1507 485.634 96.1507C487.363 96.1507 489.048 97.0271 489.653 98.6939H489.697V92.0264H491.113V108.1L491.124 108.111ZM485.645 107.256C488.659 107.256 489.708 104.712 489.708 102.298C489.708 99.8846 488.649 97.3407 485.645 97.3407C482.944 97.3407 481.852 99.8846 481.852 102.298C481.852 104.712 482.954 107.256 485.645 107.256Z" fill="#77787B"></path></g><g clip-path="url(#clip1_3321_133)"><path d="M0 132.635H132.635V0H0V132.635Z" fill="#004A93"></path><path d="M46.127 83.251H52.3851L64.3408 102.468H64.4208V83.251H70.3194V111.897H64.0197L52.1037 92.7185H52.0236V111.897H46.127V83.251Z" fill="white"></path><path d="M73.8431 91.1553H79.5403V111.896H73.8431V91.1553ZM79.5395 87.9461H73.8418V83.252H79.5395V87.9461Z" fill="white"></path><path d="M96.4867 98.4564C96.1255 96.1295 94.6404 94.887 92.2735 94.887C88.6232 94.887 87.4198 98.5769 87.4198 101.627C87.4198 104.595 88.5839 108.166 92.1541 108.166C94.8013 108.166 96.3261 106.48 96.6873 103.954H102.184C101.461 109.449 97.6505 112.458 92.1937 112.458C85.9348 112.458 81.7227 108.045 81.7227 101.826C81.7227 95.3676 85.5743 90.5938 92.3142 90.5938C97.2092 90.5938 101.703 93.1617 102.063 98.4564H96.4867Z" fill="white"></path><path d="M109.666 99.2994C109.746 97.6946 110.79 94.8859 114.4 94.8859C117.168 94.8859 118.411 96.4106 118.933 99.2994H109.666ZM124.63 102.91C125.032 96.5311 121.622 90.5938 114.561 90.5938C108.262 90.5938 103.969 95.328 103.969 101.546C103.969 107.965 108.021 112.458 114.561 112.458C119.254 112.458 122.665 110.371 124.27 105.478H119.254C118.893 106.761 117.049 108.166 114.762 108.166C111.592 108.166 109.826 106.521 109.666 102.91H124.63Z" fill="white"></path></g></g><defs><clipPath id="clip0_3321_133"><rect width="500" height="133" fill="white"></rect></clipPath><clipPath id="clip1_3321_133"><rect width="133" height="133" fill="white"></rect></clipPath></defs></svg> 