<svg xmlns="http://www.w3.org/2000/svg" width="213.557" height="24.93" viewBox="0 0 213.557 24.93"><path d="M561.081,422.838a2.272,2.272,0,1,1,2.2-2.276A2.192,2.192,0,0,1,561.081,422.838Zm0,.346a2.616,2.616,0,1,0-2.619-2.622A2.615,2.615,0,0,0,561.081,423.184Zm.429-2.506c.512-.015.913-.228.913-.8,0-.483-.262-.775-1.034-.775h-1.28v2.921h.359v-1.346h.658l.837,1.346h.428Zm-1.042-.284v-1.036h.842c.357,0,.728.058.728.513,0,.594-.607.523-1.02.523Z" transform="translate(-350.136 -399.034)"/><path d="M32.516,370.628l5.217,16.809h.047l5.477-16.809h6.4l-6.492,20.587c-.826,2.644-1.416,3.116-3.848,3.116h-3.4c-2.054,0-2.762-.637-3.589-3.33L26,370.628Z" transform="translate(-26 -370.227)"/><path d="M103.857,382.4c0,4.934-1.7,7.035-5.666,7.035a5.121,5.121,0,0,1-3.754-1.2c-1.228-1.228-1.818-3.14-1.818-6s.519-4.816,1.582-6.115c.755-.921,2.078-1.393,3.943-1.393,2.054,0,3.234.4,4.06,1.369a5.8,5.8,0,0,1,1.228,2.5A17.058,17.058,0,0,1,103.857,382.4Zm6.469-.449c0-4.3-.992-7.177-3.282-9.467-2.078-2.1-4.486-2.88-8.971-2.88-4.2,0-7.083.968-8.924,2.951-1.983,2.172-3,5.548-3,9.987,0,4.25,1.039,7.177,3.281,9.326,1.913,1.842,4.557,2.667,8.5,2.667,4.321,0,7.248-.944,9.3-3C109.311,389.456,110.326,386.316,110.326,381.949Z" transform="translate(-62.617 -369.602)"/><path d="M162.415,370.628l6.776,10.93h.047v-10.93h6.422v23.7h-4.368c-2.054,0-2.644-.378-4.155-2.833l-6.3-10.223h-.047v13.056h-6.4v-23.7Z" transform="translate(-104.156 -370.227)"/><path d="M241.717,389.208v-13.48h2.573a7.429,7.429,0,0,1,2.573.235,4.263,4.263,0,0,1,2.573,3.329,14.779,14.779,0,0,1,.26,3.022c0,2.974-.519,4.816-1.7,5.9-.827.755-1.653.991-3.542.991Zm-6.422,5.123h9.089A13.338,13.338,0,0,0,253,391.615c2.03-1.723,3.069-4.886,3.069-9.372a17.492,17.492,0,0,0-.472-4.273,8.555,8.555,0,0,0-6.492-6.752,15,15,0,0,0-3.99-.59h-9.8Z" transform="translate(-153.408 -370.227)"/><path d="M300,370.628v15.723a3.2,3.2,0,0,0,.827,2.574,3.7,3.7,0,0,0,2.856.873c1.818,0,2.738-.236,3.352-.873a3.84,3.84,0,0,0,.826-2.668V370.628H314.3v14.661c0,3.117-.59,5.383-1.747,6.776-1.582,1.912-4.485,2.856-8.688,2.856-3.99,0-6.776-.826-8.334-2.5a8.175,8.175,0,0,1-1.913-5.289c-.024-.52-.047-1.157-.047-1.865V370.628Z" transform="translate(-188.886 -370.227)"/><path d="M359.423,381.629v-5.9h5.029c1.912,0,2.431.59,2.431,2.809a3.85,3.85,0,0,1-.685,2.668c-.306.307-.779.425-1.794.425ZM353,394.331h6.422v-7.6h5.737c.59,0,1.11,0,1.535-.024a8.019,8.019,0,0,0,3.754-.944c2.054-1.157,2.951-3.329,2.951-7.082,0-2.88-.5-4.7-1.652-5.973-1.2-1.369-3.211-2.078-5.76-2.078H353Z" transform="translate(-225.061 -370.227)"/><path d="M416.738,380.142v-4.415h5.477c1.441,0,2.055.637,2.055,2.172,0,1.676-.544,2.243-2.1,2.243Zm-6.422,14.189h6.422v-9.066h2.644c1.795,0,2.645.236,3.494.968a4.671,4.671,0,0,1,1.369,3.4v4.7h6.422v-6.044c0-.543-.023-.968-.023-1.251a6.278,6.278,0,0,0-.473-2.149,3.865,3.865,0,0,0-1.936-2.1,4.88,4.88,0,0,0,1.44-1.558,7.5,7.5,0,0,0,.968-3.895c0-4.344-2.621-6.7-7.413-6.7H410.316Z" transform="translate(-259.952 -370.227)"/><path d="M471.071,370.628h6.421v23.7h-6.421Z" transform="translate(-296.936 -370.227)"/><path d="M505.518,370.628l6.776,10.93h.047v-10.93h6.422v23.7h-4.368c-2.054,0-2.644-.378-4.155-2.833l-6.3-10.223h-.047v13.056h-6.4v-23.7Z" transform="translate(-313.02 -370.227)"/></svg>